# Janela preta de correr, duas folhas
# Units: millimeters; X width, Y depth, Z up
# Width 1400 mm; estimated height 850 mm; estimated depth 80 mm
mtllib janela_preta_1400mm.mtl
v -700.0000 -40.0000 0.0000
v 700.0000 -40.0000 0.0000
v 700.0000 40.0000 0.0000
v -700.0000 40.0000 0.0000
v -700.0000 -40.0000 22.0000
v 700.0000 -40.0000 22.0000
v 700.0000 40.0000 22.0000
v -700.0000 40.0000 22.0000
v -700.0000 -40.0000 828.0000
v 700.0000 -40.0000 828.0000
v 700.0000 40.0000 828.0000
v -700.0000 40.0000 828.0000
v -700.0000 -40.0000 850.0000
v 700.0000 -40.0000 850.0000
v 700.0000 40.0000 850.0000
v -700.0000 40.0000 850.0000
v -700.0000 -40.0000 22.0000
v -678.0000 -40.0000 22.0000
v -678.0000 40.0000 22.0000
v -700.0000 40.0000 22.0000
v -700.0000 -40.0000 828.0000
v -678.0000 -40.0000 828.0000
v -678.0000 40.0000 828.0000
v -700.0000 40.0000 828.0000
v 678.0000 -40.0000 22.0000
v 700.0000 -40.0000 22.0000
v 700.0000 40.0000 22.0000
v 678.0000 40.0000 22.0000
v 678.0000 -40.0000 828.0000
v 700.0000 -40.0000 828.0000
v 700.0000 40.0000 828.0000
v 678.0000 40.0000 828.0000
v -700.0000 -40.0000 0.0000
v 700.0000 -40.0000 0.0000
v 700.0000 -34.0000 0.0000
v -700.0000 -34.0000 0.0000
v -700.0000 -40.0000 12.0000
v 700.0000 -40.0000 12.0000
v 700.0000 -34.0000 12.0000
v -700.0000 -34.0000 12.0000
v -700.0000 -40.0000 838.0000
v 700.0000 -40.0000 838.0000
v 700.0000 -34.0000 838.0000
v -700.0000 -34.0000 838.0000
v -700.0000 -40.0000 850.0000
v 700.0000 -40.0000 850.0000
v 700.0000 -34.0000 850.0000
v -700.0000 -34.0000 850.0000
v -700.0000 -40.0000 12.0000
v -688.0000 -40.0000 12.0000
v -688.0000 -34.0000 12.0000
v -700.0000 -34.0000 12.0000
v -700.0000 -40.0000 838.0000
v -688.0000 -40.0000 838.0000
v -688.0000 -34.0000 838.0000
v -700.0000 -34.0000 838.0000
v 688.0000 -40.0000 12.0000
v 700.0000 -40.0000 12.0000
v 700.0000 -34.0000 12.0000
v 688.0000 -34.0000 12.0000
v 688.0000 -40.0000 838.0000
v 700.0000 -40.0000 838.0000
v 700.0000 -34.0000 838.0000
v 688.0000 -34.0000 838.0000
v -700.0000 34.0000 0.0000
v 700.0000 34.0000 0.0000
v 700.0000 40.0000 0.0000
v -700.0000 40.0000 0.0000
v -700.0000 34.0000 12.0000
v 700.0000 34.0000 12.0000
v 700.0000 40.0000 12.0000
v -700.0000 40.0000 12.0000
v -700.0000 34.0000 838.0000
v 700.0000 34.0000 838.0000
v 700.0000 40.0000 838.0000
v -700.0000 40.0000 838.0000
v -700.0000 34.0000 850.0000
v 700.0000 34.0000 850.0000
v 700.0000 40.0000 850.0000
v -700.0000 40.0000 850.0000
v -700.0000 34.0000 12.0000
v -688.0000 34.0000 12.0000
v -688.0000 40.0000 12.0000
v -700.0000 40.0000 12.0000
v -700.0000 34.0000 838.0000
v -688.0000 34.0000 838.0000
v -688.0000 40.0000 838.0000
v -700.0000 40.0000 838.0000
v 688.0000 34.0000 12.0000
v 700.0000 34.0000 12.0000
v 700.0000 40.0000 12.0000
v 688.0000 40.0000 12.0000
v 688.0000 34.0000 838.0000
v 700.0000 34.0000 838.0000
v 700.0000 40.0000 838.0000
v 688.0000 40.0000 838.0000
v -678.0000 -26.0000 22.0000
v 678.0000 -26.0000 22.0000
v 678.0000 -22.0000 22.0000
v -678.0000 -22.0000 22.0000
v -678.0000 -26.0000 30.0000
v 678.0000 -26.0000 30.0000
v 678.0000 -22.0000 30.0000
v -678.0000 -22.0000 30.0000
v -678.0000 -26.0000 820.0000
v 678.0000 -26.0000 820.0000
v 678.0000 -22.0000 820.0000
v -678.0000 -22.0000 820.0000
v -678.0000 -26.0000 828.0000
v 678.0000 -26.0000 828.0000
v 678.0000 -22.0000 828.0000
v -678.0000 -22.0000 828.0000
v -678.0000 6.0000 22.0000
v 678.0000 6.0000 22.0000
v 678.0000 10.0000 22.0000
v -678.0000 10.0000 22.0000
v -678.0000 6.0000 30.0000
v 678.0000 6.0000 30.0000
v 678.0000 10.0000 30.0000
v -678.0000 10.0000 30.0000
v -678.0000 6.0000 820.0000
v 678.0000 6.0000 820.0000
v 678.0000 10.0000 820.0000
v -678.0000 10.0000 820.0000
v -678.0000 6.0000 828.0000
v 678.0000 6.0000 828.0000
v 678.0000 10.0000 828.0000
v -678.0000 10.0000 828.0000
v -676.0000 -35.0000 31.0000
v 16.0000 -35.0000 31.0000
v 16.0000 -11.0000 31.0000
v -676.0000 -11.0000 31.0000
v -676.0000 -35.0000 61.0000
v 16.0000 -35.0000 61.0000
v 16.0000 -11.0000 61.0000
v -676.0000 -11.0000 61.0000
v -676.0000 -35.0000 789.0000
v 16.0000 -35.0000 789.0000
v 16.0000 -11.0000 789.0000
v -676.0000 -11.0000 789.0000
v -676.0000 -35.0000 819.0000
v 16.0000 -35.0000 819.0000
v 16.0000 -11.0000 819.0000
v -676.0000 -11.0000 819.0000
v -676.0000 -35.0000 61.0000
v -646.0000 -35.0000 61.0000
v -646.0000 -11.0000 61.0000
v -676.0000 -11.0000 61.0000
v -676.0000 -35.0000 789.0000
v -646.0000 -35.0000 789.0000
v -646.0000 -11.0000 789.0000
v -676.0000 -11.0000 789.0000
v -14.0000 -35.0000 61.0000
v 16.0000 -35.0000 61.0000
v 16.0000 -11.0000 61.0000
v -14.0000 -11.0000 61.0000
v -14.0000 -35.0000 789.0000
v 16.0000 -35.0000 789.0000
v 16.0000 -11.0000 789.0000
v -14.0000 -11.0000 789.0000
v -649.0000 -33.5000 58.0000
v -11.0000 -33.5000 58.0000
v -11.0000 -30.5000 58.0000
v -649.0000 -30.5000 58.0000
v -649.0000 -33.5000 63.0000
v -11.0000 -33.5000 63.0000
v -11.0000 -30.5000 63.0000
v -649.0000 -30.5000 63.0000
v -649.0000 -33.5000 787.0000
v -11.0000 -33.5000 787.0000
v -11.0000 -30.5000 787.0000
v -649.0000 -30.5000 787.0000
v -649.0000 -33.5000 792.0000
v -11.0000 -33.5000 792.0000
v -11.0000 -30.5000 792.0000
v -649.0000 -30.5000 792.0000
v -649.0000 -33.5000 63.0000
v -644.0000 -33.5000 63.0000
v -644.0000 -30.5000 63.0000
v -649.0000 -30.5000 63.0000
v -649.0000 -33.5000 787.0000
v -644.0000 -33.5000 787.0000
v -644.0000 -30.5000 787.0000
v -649.0000 -30.5000 787.0000
v -16.0000 -33.5000 63.0000
v -11.0000 -33.5000 63.0000
v -11.0000 -30.5000 63.0000
v -16.0000 -30.5000 63.0000
v -16.0000 -33.5000 787.0000
v -11.0000 -33.5000 787.0000
v -11.0000 -30.5000 787.0000
v -16.0000 -30.5000 787.0000
v -649.0000 -15.5000 58.0000
v -11.0000 -15.5000 58.0000
v -11.0000 -12.5000 58.0000
v -649.0000 -12.5000 58.0000
v -649.0000 -15.5000 63.0000
v -11.0000 -15.5000 63.0000
v -11.0000 -12.5000 63.0000
v -649.0000 -12.5000 63.0000
v -649.0000 -15.5000 787.0000
v -11.0000 -15.5000 787.0000
v -11.0000 -12.5000 787.0000
v -649.0000 -12.5000 787.0000
v -649.0000 -15.5000 792.0000
v -11.0000 -15.5000 792.0000
v -11.0000 -12.5000 792.0000
v -649.0000 -12.5000 792.0000
v -649.0000 -15.5000 63.0000
v -644.0000 -15.5000 63.0000
v -644.0000 -12.5000 63.0000
v -649.0000 -12.5000 63.0000
v -649.0000 -15.5000 787.0000
v -644.0000 -15.5000 787.0000
v -644.0000 -12.5000 787.0000
v -649.0000 -12.5000 787.0000
v -16.0000 -15.5000 63.0000
v -11.0000 -15.5000 63.0000
v -11.0000 -12.5000 63.0000
v -16.0000 -12.5000 63.0000
v -16.0000 -15.5000 787.0000
v -11.0000 -15.5000 787.0000
v -11.0000 -12.5000 787.0000
v -16.0000 -12.5000 787.0000
v -644.0000 -25.0000 63.0000
v -16.0000 -25.0000 63.0000
v -16.0000 -21.0000 63.0000
v -644.0000 -21.0000 63.0000
v -644.0000 -25.0000 787.0000
v -16.0000 -25.0000 787.0000
v -16.0000 -21.0000 787.0000
v -644.0000 -21.0000 787.0000
v -6.0000 -36.0000 361.0000
v 8.0000 -36.0000 361.0000
v 8.0000 -35.0000 361.0000
v -6.0000 -35.0000 361.0000
v -6.0000 -36.0000 489.0000
v 8.0000 -36.0000 489.0000
v 8.0000 -35.0000 489.0000
v -6.0000 -35.0000 489.0000
v -3.0000 -36.2000 369.0000
v 5.0000 -36.2000 369.0000
v 5.0000 -36.0000 369.0000
v -3.0000 -36.0000 369.0000
v -3.0000 -36.2000 481.0000
v 5.0000 -36.2000 481.0000
v 5.0000 -36.0000 481.0000
v -3.0000 -36.0000 481.0000
v -16.0000 -3.0000 31.0000
v 676.0000 -3.0000 31.0000
v 676.0000 21.0000 31.0000
v -16.0000 21.0000 31.0000
v -16.0000 -3.0000 61.0000
v 676.0000 -3.0000 61.0000
v 676.0000 21.0000 61.0000
v -16.0000 21.0000 61.0000
v -16.0000 -3.0000 789.0000
v 676.0000 -3.0000 789.0000
v 676.0000 21.0000 789.0000
v -16.0000 21.0000 789.0000
v -16.0000 -3.0000 819.0000
v 676.0000 -3.0000 819.0000
v 676.0000 21.0000 819.0000
v -16.0000 21.0000 819.0000
v -16.0000 -3.0000 61.0000
v 14.0000 -3.0000 61.0000
v 14.0000 21.0000 61.0000
v -16.0000 21.0000 61.0000
v -16.0000 -3.0000 789.0000
v 14.0000 -3.0000 789.0000
v 14.0000 21.0000 789.0000
v -16.0000 21.0000 789.0000
v 646.0000 -3.0000 61.0000
v 676.0000 -3.0000 61.0000
v 676.0000 21.0000 61.0000
v 646.0000 21.0000 61.0000
v 646.0000 -3.0000 789.0000
v 676.0000 -3.0000 789.0000
v 676.0000 21.0000 789.0000
v 646.0000 21.0000 789.0000
v 11.0000 -1.5000 58.0000
v 649.0000 -1.5000 58.0000
v 649.0000 1.5000 58.0000
v 11.0000 1.5000 58.0000
v 11.0000 -1.5000 63.0000
v 649.0000 -1.5000 63.0000
v 649.0000 1.5000 63.0000
v 11.0000 1.5000 63.0000
v 11.0000 -1.5000 787.0000
v 649.0000 -1.5000 787.0000
v 649.0000 1.5000 787.0000
v 11.0000 1.5000 787.0000
v 11.0000 -1.5000 792.0000
v 649.0000 -1.5000 792.0000
v 649.0000 1.5000 792.0000
v 11.0000 1.5000 792.0000
v 11.0000 -1.5000 63.0000
v 16.0000 -1.5000 63.0000
v 16.0000 1.5000 63.0000
v 11.0000 1.5000 63.0000
v 11.0000 -1.5000 787.0000
v 16.0000 -1.5000 787.0000
v 16.0000 1.5000 787.0000
v 11.0000 1.5000 787.0000
v 644.0000 -1.5000 63.0000
v 649.0000 -1.5000 63.0000
v 649.0000 1.5000 63.0000
v 644.0000 1.5000 63.0000
v 644.0000 -1.5000 787.0000
v 649.0000 -1.5000 787.0000
v 649.0000 1.5000 787.0000
v 644.0000 1.5000 787.0000
v 11.0000 16.5000 58.0000
v 649.0000 16.5000 58.0000
v 649.0000 19.5000 58.0000
v 11.0000 19.5000 58.0000
v 11.0000 16.5000 63.0000
v 649.0000 16.5000 63.0000
v 649.0000 19.5000 63.0000
v 11.0000 19.5000 63.0000
v 11.0000 16.5000 787.0000
v 649.0000 16.5000 787.0000
v 649.0000 19.5000 787.0000
v 11.0000 19.5000 787.0000
v 11.0000 16.5000 792.0000
v 649.0000 16.5000 792.0000
v 649.0000 19.5000 792.0000
v 11.0000 19.5000 792.0000
v 11.0000 16.5000 63.0000
v 16.0000 16.5000 63.0000
v 16.0000 19.5000 63.0000
v 11.0000 19.5000 63.0000
v 11.0000 16.5000 787.0000
v 16.0000 16.5000 787.0000
v 16.0000 19.5000 787.0000
v 11.0000 19.5000 787.0000
v 644.0000 16.5000 63.0000
v 649.0000 16.5000 63.0000
v 649.0000 19.5000 63.0000
v 644.0000 19.5000 63.0000
v 644.0000 16.5000 787.0000
v 649.0000 16.5000 787.0000
v 649.0000 19.5000 787.0000
v 644.0000 19.5000 787.0000
v 16.0000 7.0000 63.0000
v 644.0000 7.0000 63.0000
v 644.0000 11.0000 63.0000
v 16.0000 11.0000 63.0000
v 16.0000 7.0000 787.0000
v 644.0000 7.0000 787.0000
v 644.0000 11.0000 787.0000
v 16.0000 11.0000 787.0000
v 654.0000 -4.0000 361.0000
v 668.0000 -4.0000 361.0000
v 668.0000 -3.0000 361.0000
v 654.0000 -3.0000 361.0000
v 654.0000 -4.0000 489.0000
v 668.0000 -4.0000 489.0000
v 668.0000 -3.0000 489.0000
v 654.0000 -3.0000 489.0000
v 657.0000 -4.2000 369.0000
v 665.0000 -4.2000 369.0000
v 665.0000 -4.0000 369.0000
v 657.0000 -4.0000 369.0000
v 657.0000 -4.2000 481.0000
v 665.0000 -4.2000 481.0000
v 665.0000 -4.0000 481.0000
v 657.0000 -4.0000 481.0000
o Marco_Externo_Inferior
usemtl Aluminio_Preto
s off
f 1 4 3 2
f 5 6 7 8
f 1 2 6 5
f 2 3 7 6
f 3 4 8 7
f 4 1 5 8
o Marco_Externo_Superior
usemtl Aluminio_Preto
s off
f 9 12 11 10
f 13 14 15 16
f 9 10 14 13
f 10 11 15 14
f 11 12 16 15
f 12 9 13 16
o Marco_Externo_Esquerda
usemtl Aluminio_Preto
s off
f 17 20 19 18
f 21 22 23 24
f 17 18 22 21
f 18 19 23 22
f 19 20 24 23
f 20 17 21 24
o Marco_Externo_Direita
usemtl Aluminio_Preto
s off
f 25 28 27 26
f 29 30 31 32
f 25 26 30 29
f 26 27 31 30
f 27 28 32 31
f 28 25 29 32
o Borda_Frontal_Inferior
usemtl Aluminio_Preto
s off
f 33 36 35 34
f 37 38 39 40
f 33 34 38 37
f 34 35 39 38
f 35 36 40 39
f 36 33 37 40
o Borda_Frontal_Superior
usemtl Aluminio_Preto
s off
f 41 44 43 42
f 45 46 47 48
f 41 42 46 45
f 42 43 47 46
f 43 44 48 47
f 44 41 45 48
o Borda_Frontal_Esquerda
usemtl Aluminio_Preto
s off
f 49 52 51 50
f 53 54 55 56
f 49 50 54 53
f 50 51 55 54
f 51 52 56 55
f 52 49 53 56
o Borda_Frontal_Direita
usemtl Aluminio_Preto
s off
f 57 60 59 58
f 61 62 63 64
f 57 58 62 61
f 58 59 63 62
f 59 60 64 63
f 60 57 61 64
o Borda_Posterior_Inferior
usemtl Aluminio_Preto
s off
f 65 68 67 66
f 69 70 71 72
f 65 66 70 69
f 66 67 71 70
f 67 68 72 71
f 68 65 69 72
o Borda_Posterior_Superior
usemtl Aluminio_Preto
s off
f 73 76 75 74
f 77 78 79 80
f 73 74 78 77
f 74 75 79 78
f 75 76 80 79
f 76 73 77 80
o Borda_Posterior_Esquerda
usemtl Aluminio_Preto
s off
f 81 84 83 82
f 85 86 87 88
f 81 82 86 85
f 82 83 87 86
f 83 84 88 87
f 84 81 85 88
o Borda_Posterior_Direita
usemtl Aluminio_Preto
s off
f 89 92 91 90
f 93 94 95 96
f 89 90 94 93
f 90 91 95 94
f 91 92 96 95
f 92 89 93 96
o Trilho_Inferior_1
usemtl Aluminio_Preto
s off
f 97 100 99 98
f 101 102 103 104
f 97 98 102 101
f 98 99 103 102
f 99 100 104 103
f 100 97 101 104
o Guia_Superior_1
usemtl Aluminio_Preto
s off
f 105 108 107 106
f 109 110 111 112
f 105 106 110 109
f 106 107 111 110
f 107 108 112 111
f 108 105 109 112
o Trilho_Inferior_2
usemtl Aluminio_Preto
s off
f 113 116 115 114
f 117 118 119 120
f 113 114 118 117
f 114 115 119 118
f 115 116 120 119
f 116 113 117 120
o Guia_Superior_2
usemtl Aluminio_Preto
s off
f 121 124 123 122
f 125 126 127 128
f 121 122 126 125
f 122 123 127 126
f 123 124 128 127
f 124 121 125 128
o Folha_Esquerda_Inferior
usemtl Aluminio_Preto
s off
f 129 132 131 130
f 133 134 135 136
f 129 130 134 133
f 130 131 135 134
f 131 132 136 135
f 132 129 133 136
o Folha_Esquerda_Superior
usemtl Aluminio_Preto
s off
f 137 140 139 138
f 141 142 143 144
f 137 138 142 141
f 138 139 143 142
f 139 140 144 143
f 140 137 141 144
o Folha_Esquerda_Esquerda
usemtl Aluminio_Preto
s off
f 145 148 147 146
f 149 150 151 152
f 145 146 150 149
f 146 147 151 150
f 147 148 152 151
f 148 145 149 152
o Folha_Esquerda_Direita
usemtl Aluminio_Preto
s off
f 153 156 155 154
f 157 158 159 160
f 153 154 158 157
f 154 155 159 158
f 155 156 160 159
f 156 153 157 160
o Folha_Esquerda_Baguete_-1_Inferior
usemtl Aluminio_Preto
s off
f 161 164 163 162
f 165 166 167 168
f 161 162 166 165
f 162 163 167 166
f 163 164 168 167
f 164 161 165 168
o Folha_Esquerda_Baguete_-1_Superior
usemtl Aluminio_Preto
s off
f 169 172 171 170
f 173 174 175 176
f 169 170 174 173
f 170 171 175 174
f 171 172 176 175
f 172 169 173 176
o Folha_Esquerda_Baguete_-1_Esquerda
usemtl Aluminio_Preto
s off
f 177 180 179 178
f 181 182 183 184
f 177 178 182 181
f 178 179 183 182
f 179 180 184 183
f 180 177 181 184
o Folha_Esquerda_Baguete_-1_Direita
usemtl Aluminio_Preto
s off
f 185 188 187 186
f 189 190 191 192
f 185 186 190 189
f 186 187 191 190
f 187 188 192 191
f 188 185 189 192
o Folha_Esquerda_Baguete_1_Inferior
usemtl Aluminio_Preto
s off
f 193 196 195 194
f 197 198 199 200
f 193 194 198 197
f 194 195 199 198
f 195 196 200 199
f 196 193 197 200
o Folha_Esquerda_Baguete_1_Superior
usemtl Aluminio_Preto
s off
f 201 204 203 202
f 205 206 207 208
f 201 202 206 205
f 202 203 207 206
f 203 204 208 207
f 204 201 205 208
o Folha_Esquerda_Baguete_1_Esquerda
usemtl Aluminio_Preto
s off
f 209 212 211 210
f 213 214 215 216
f 209 210 214 213
f 210 211 215 214
f 211 212 216 215
f 212 209 213 216
o Folha_Esquerda_Baguete_1_Direita
usemtl Aluminio_Preto
s off
f 217 220 219 218
f 221 222 223 224
f 217 218 222 221
f 218 219 223 222
f 219 220 224 223
f 220 217 221 224
o Folha_Esquerda_Vidro
usemtl Vidro_Transparente
s off
f 225 228 227 226
f 229 230 231 232
f 225 226 230 229
f 226 227 231 230
f 227 228 232 231
f 228 225 229 232
o Folha_Esquerda_Puxador_Base
usemtl Ferragem_Preta
s off
f 233 236 235 234
f 237 238 239 240
f 233 234 238 237
f 234 235 239 238
f 235 236 240 239
f 236 233 237 240
o Folha_Esquerda_Puxador_Cavidade
usemtl Cavidade_Preta
s off
f 241 244 243 242
f 245 246 247 248
f 241 242 246 245
f 242 243 247 246
f 243 244 248 247
f 244 241 245 248
o Folha_Direita_Inferior
usemtl Aluminio_Preto
s off
f 249 252 251 250
f 253 254 255 256
f 249 250 254 253
f 250 251 255 254
f 251 252 256 255
f 252 249 253 256
o Folha_Direita_Superior
usemtl Aluminio_Preto
s off
f 257 260 259 258
f 261 262 263 264
f 257 258 262 261
f 258 259 263 262
f 259 260 264 263
f 260 257 261 264
o Folha_Direita_Esquerda
usemtl Aluminio_Preto
s off
f 265 268 267 266
f 269 270 271 272
f 265 266 270 269
f 266 267 271 270
f 267 268 272 271
f 268 265 269 272
o Folha_Direita_Direita
usemtl Aluminio_Preto
s off
f 273 276 275 274
f 277 278 279 280
f 273 274 278 277
f 274 275 279 278
f 275 276 280 279
f 276 273 277 280
o Folha_Direita_Baguete_-1_Inferior
usemtl Aluminio_Preto
s off
f 281 284 283 282
f 285 286 287 288
f 281 282 286 285
f 282 283 287 286
f 283 284 288 287
f 284 281 285 288
o Folha_Direita_Baguete_-1_Superior
usemtl Aluminio_Preto
s off
f 289 292 291 290
f 293 294 295 296
f 289 290 294 293
f 290 291 295 294
f 291 292 296 295
f 292 289 293 296
o Folha_Direita_Baguete_-1_Esquerda
usemtl Aluminio_Preto
s off
f 297 300 299 298
f 301 302 303 304
f 297 298 302 301
f 298 299 303 302
f 299 300 304 303
f 300 297 301 304
o Folha_Direita_Baguete_-1_Direita
usemtl Aluminio_Preto
s off
f 305 308 307 306
f 309 310 311 312
f 305 306 310 309
f 306 307 311 310
f 307 308 312 311
f 308 305 309 312
o Folha_Direita_Baguete_1_Inferior
usemtl Aluminio_Preto
s off
f 313 316 315 314
f 317 318 319 320
f 313 314 318 317
f 314 315 319 318
f 315 316 320 319
f 316 313 317 320
o Folha_Direita_Baguete_1_Superior
usemtl Aluminio_Preto
s off
f 321 324 323 322
f 325 326 327 328
f 321 322 326 325
f 322 323 327 326
f 323 324 328 327
f 324 321 325 328
o Folha_Direita_Baguete_1_Esquerda
usemtl Aluminio_Preto
s off
f 329 332 331 330
f 333 334 335 336
f 329 330 334 333
f 330 331 335 334
f 331 332 336 335
f 332 329 333 336
o Folha_Direita_Baguete_1_Direita
usemtl Aluminio_Preto
s off
f 337 340 339 338
f 341 342 343 344
f 337 338 342 341
f 338 339 343 342
f 339 340 344 343
f 340 337 341 344
o Folha_Direita_Vidro
usemtl Vidro_Transparente
s off
f 345 348 347 346
f 349 350 351 352
f 345 346 350 349
f 346 347 351 350
f 347 348 352 351
f 348 345 349 352
o Folha_Direita_Puxador_Base
usemtl Ferragem_Preta
s off
f 353 356 355 354
f 357 358 359 360
f 353 354 358 357
f 354 355 359 358
f 355 356 360 359
f 356 353 357 360
o Folha_Direita_Puxador_Cavidade
usemtl Cavidade_Preta
s off
f 361 364 363 362
f 365 366 367 368
f 361 362 366 365
f 362 363 367 366
f 363 364 368 367
f 364 361 365 368
